<svg width="111" height="58" viewBox="0 0 111 58" fill="none" xmlns="http://www.w3.org/2000/svg">
<path d="M16.9594 38.8995L17.038 38.606C17.9052 35.5 18.8955 33.1087 20.0089 31.432C21.1224 29.7554 22.4028 28.4992 23.8502 27.6636C25.2975 26.8279 26.9492 26.1431 28.8051 25.6092C29.9245 25.28 30.9745 24.8185 31.9551 24.2248C32.94 23.6148 33.7946 22.8388 34.5189 21.8968C35.2595 20.9592 35.8024 19.8462 36.1476 18.558C36.5758 16.9598 36.5722 15.4732 36.1366 14.0981C35.7011 12.723 34.9407 11.5492 33.8555 10.5768C32.7702 9.60434 31.4612 8.91276 29.9283 8.50202C28.5911 8.14372 27.2285 8.07575 25.8406 8.29812C24.4527 8.52048 23.1834 9.11546 22.0328 10.083C20.8821 11.0506 19.9838 12.4791 19.3377 14.3684L13.1736 12.7167C14.0469 9.97941 15.4001 7.79897 17.2334 6.17535C19.083 4.5561 21.2239 3.51303 23.6561 3.04614C26.1047 2.58363 28.6498 2.7063 31.2916 3.41416C34.1617 4.18319 36.5037 5.42248 38.3178 7.13203C40.1482 8.84595 41.3758 10.8528 42.0005 13.1525C42.6415 15.4566 42.6212 17.8806 41.9396 20.4245C41.4589 22.2183 40.7469 23.7666 39.8036 25.0694C38.8766 26.3765 37.7465 27.4632 36.4132 28.3295C35.0963 29.2001 33.6024 29.8834 31.9314 30.3795C30.256 30.8918 28.8529 31.5296 27.7221 32.2928C26.5956 33.0396 25.6554 34.0374 24.9013 35.286C24.1473 36.5346 23.4831 38.1656 22.9086 40.179L22.83 40.4725L16.9594 38.8995ZM16.2102 54.2193C15.0035 53.8959 14.0838 53.1863 13.4511 52.0905C12.8184 50.9946 12.6637 49.8433 12.987 48.6366C13.3104 47.4298 14.02 46.5101 15.1159 45.8774C16.2117 45.2447 17.363 45.09 18.5698 45.4134C19.7765 45.7367 20.6962 46.4463 21.3289 47.5422C21.9616 48.6381 22.1163 49.7894 21.793 50.9961C21.5788 51.7952 21.1784 52.4744 20.5915 53.0337C20.021 53.5975 19.3468 53.9936 18.569 54.2221C17.8118 54.4387 17.0256 54.4378 16.2102 54.2193Z" fill="#2BB3FF" fill-opacity="0.5"/>
<path d="M97.0797 43.4446L96.9936 43.3329C96.092 42.1382 95.4888 41.0994 95.1838 40.2164C94.8789 39.3335 94.7761 38.5074 94.8754 37.7381C94.9748 36.9688 95.1873 36.1666 95.513 35.3316C95.7068 34.8259 95.8323 34.3086 95.8895 33.7797C95.9418 33.2445 95.8962 32.7107 95.7527 32.1782C95.6154 31.6409 95.3577 31.1272 94.9797 30.637C94.5108 30.029 93.9613 29.6116 93.3314 29.385C92.7014 29.1584 92.0542 29.1083 91.3899 29.2348C90.7255 29.3613 90.1017 29.6494 89.5184 30.0993C89.0097 30.4916 88.6008 30.9752 88.292 31.5498C87.9831 32.1244 87.8452 32.7602 87.878 33.4572C87.9109 34.1542 88.1849 34.8879 88.6999 35.6583L86.3545 37.4672C85.5907 36.3741 85.1674 35.2608 85.0848 34.1272C85.0084 32.9888 85.2265 31.9053 85.7393 30.8765C86.2582 29.843 87.0203 28.9386 88.0255 28.1634C89.1175 27.3212 90.2343 26.8062 91.3758 26.6185C92.5236 26.4259 93.6096 26.5383 94.634 26.9555C95.6645 27.3679 96.553 28.0581 97.2995 29.026C97.8259 29.7085 98.1965 30.4072 98.4115 31.1221C98.6326 31.8323 98.7152 32.5552 98.6593 33.291C98.6096 34.022 98.4409 34.7656 98.1533 35.5218C97.8705 36.2841 97.7106 36.9813 97.6736 37.6134C97.6319 38.2393 97.7352 38.8672 97.9834 39.497C98.2317 40.1269 98.6463 40.8312 99.2273 41.6102L99.3134 41.7219L97.0797 43.4446ZM102.52 48.0355C102.061 48.3896 101.54 48.529 100.958 48.4538C100.375 48.3786 99.9071 48.1114 99.553 47.6523C99.1989 47.1931 99.0595 46.6723 99.1347 46.0899C99.2099 45.5074 99.4771 45.0391 99.9363 44.685C100.395 44.3309 100.916 44.1915 101.499 44.2667C102.081 44.3419 102.549 44.6091 102.904 45.0682C103.138 45.3723 103.276 45.7113 103.317 46.0853C103.364 46.4545 103.32 46.8148 103.186 47.1661C103.052 47.5064 102.831 47.7962 102.52 48.0355Z" fill="#2BB3FF" fill-opacity="0.5"/>
</svg>
