<svg xmlns="http://www.w3.org/2000/svg" width="111" height="58" viewBox="0 0 111 58" fill="none">
  <path d="M80.1742 38.8995L80.2529 38.606C81.12 35.5 82.1104 33.1087 83.2238 31.432C84.3372 29.7554 85.6176 28.4992 87.065 27.6636C88.5124 26.8279 90.164 26.1431 92.0199 25.6092C93.1394 25.28 94.1893 24.8185 95.1699 24.2248C96.1548 23.6148 97.0094 22.8388 97.7337 21.8968C98.4744 20.9592 99.0173 19.8462 99.3625 18.558C99.7907 16.9598 99.787 15.4732 99.3515 14.0981C98.916 12.723 98.1556 11.5492 97.0703 10.5768C95.9851 9.60434 94.676 8.91276 93.1431 8.50202C91.8059 8.14372 90.4434 8.07575 89.0555 8.29812C87.6676 8.52048 86.3983 9.11546 85.2476 10.083C84.097 11.0506 83.1986 12.4791 82.5526 14.3684L76.3884 12.7167C77.2617 9.97941 78.615 7.79897 80.4483 6.17535C82.2979 4.5561 84.4388 3.51303 86.871 3.04614C89.3195 2.58363 91.8646 2.7063 94.5064 3.41416C97.3765 4.18319 99.7186 5.42248 101.533 7.13203C103.363 8.84595 104.591 10.8528 105.215 13.1525C105.856 15.4566 105.836 17.8806 105.154 20.4245C104.674 22.2183 103.962 23.7666 103.018 25.0694C102.091 26.3765 100.961 27.4632 99.6281 28.3295C98.3112 29.2001 96.8172 29.8834 95.1462 30.3795C93.4709 30.8918 92.0678 31.5296 90.9369 32.2928C89.8105 33.0396 88.8702 34.0374 88.1162 35.286C87.3621 36.5346 86.6979 38.1656 86.1235 40.179L86.0448 40.4725L80.1742 38.8995ZM79.4251 54.2193C78.2183 53.8959 77.2986 53.1863 76.6659 52.0905C76.0332 50.9946 75.8785 49.8433 76.2019 48.6366C76.5252 47.4298 77.2348 46.5101 78.3307 45.8774C79.4266 45.2447 80.5779 45.09 81.7846 45.4134C82.9913 45.7367 83.9111 46.4463 84.5438 47.5422C85.1765 48.6381 85.3311 49.7894 85.0078 50.9961C84.7937 51.7952 84.3932 52.4744 83.8064 53.0337C83.2359 53.5975 82.5617 53.9936 81.7838 54.2221C81.0267 54.4387 80.2404 54.4378 79.4251 54.2193Z" fill="#2AB2FF" fill-opacity="0.5"/>
  <path d="M17.6012 43.4446L17.5151 43.3329C16.6135 42.1382 16.0102 41.0994 15.7053 40.2164C15.4003 39.3335 15.2975 38.5074 15.3969 37.7381C15.4963 36.9688 15.7088 36.1666 16.0345 35.3316C16.2283 34.8259 16.3538 34.3086 16.4109 33.7797C16.4633 33.2445 16.4177 32.7107 16.2742 32.1782C16.1369 31.6409 15.8792 31.1272 15.5012 30.637C15.0322 30.029 14.4828 29.6116 13.8528 29.385C13.2229 29.1584 12.5757 29.1083 11.9113 29.2348C11.247 29.3613 10.6232 29.6494 10.0399 30.0993C9.53115 30.4916 9.12233 30.9752 8.81348 31.5498C8.50462 32.1244 8.36664 32.7602 8.39952 33.4572C8.43241 34.1542 8.70636 34.8879 9.22138 35.6583L6.87603 37.4672C6.11218 36.3741 5.68893 35.2608 5.60629 34.1272C5.52986 32.9888 5.74801 31.9053 6.26077 30.8765C6.77973 29.843 7.54179 28.9386 8.54694 28.1634C9.63895 27.3212 10.7557 26.8062 11.8973 26.6185C13.0451 26.4259 14.1311 26.5383 15.1555 26.9555C16.186 27.3679 17.0745 28.0581 17.821 29.026C18.3474 29.7085 18.718 30.4072 18.9329 31.1221C19.1541 31.8323 19.2367 32.5552 19.1808 33.291C19.131 34.022 18.9624 34.7656 18.6748 35.5218C18.3919 36.2841 18.2321 36.9813 18.1951 37.6134C18.1534 38.2393 18.2567 38.8672 18.5049 39.497C18.7532 40.1269 19.1678 40.8312 19.7487 41.6102L19.8349 41.7219L17.6012 43.4446ZM23.0418 48.0355C22.5826 48.3896 22.0618 48.529 21.4794 48.4538C20.8969 48.3786 20.4286 48.1114 20.0745 47.6523C19.7204 47.1931 19.581 46.6723 19.6562 46.0899C19.7314 45.5074 19.9986 45.0391 20.4578 44.685C20.9169 44.3309 21.4377 44.1915 22.0202 44.2667C22.6026 44.3419 23.0709 44.6091 23.425 45.0682C23.6595 45.3723 23.7973 45.7113 23.8384 46.0853C23.8856 46.4545 23.8419 46.8148 23.7071 47.1661C23.5738 47.5064 23.352 47.7962 23.0418 48.0355Z" fill="#2AB2FF" fill-opacity="0.5"/>
</svg>